<?xml version="1.0" encoding="UTF-8" standalone="no"?>
<!DOCTYPE svg PUBLIC "-//W3C//DTD SVG 1.1//EN"
 "http://www.w3.org/Graphics/SVG/1.1/DTD/svg11.dtd">
<!-- Generated by graphviz version 2.38.0 (20140413.2041)
 -->
<!-- Title: unnamed Pages: 1 -->
<svg width="912pt" height="483pt"
 viewBox="0.00 0.00 911.50 483.00" xmlns="http://www.w3.org/2000/svg" xmlns:xlink="http://www.w3.org/1999/xlink">
<g id="graph0" class="graph" transform="scale(1 1) rotate(0) translate(4 479)">
<title>unnamed</title>
<polygon fill="white" stroke="none" points="-4,4 -4,-479 907.5,-479 907.5,4 -4,4"/>
<!-- Node0x9fbc258 -->
<g id="node1" class="node"><title>Node0x9fbc258</title>
<polygon fill="none" stroke="black" points="381,-438.5 381,-474.5 485,-474.5 485,-438.5 381,-438.5"/>
<text text-anchor="middle" x="433" y="-452.8" font-family="Times,serif" font-size="14.00">CompoundStmt</text>
</g>
<!-- Node0x9fbbea8 -->
<g id="node2" class="node"><title>Node0x9fbbea8</title>
<polygon fill="none" stroke="black" points="241,-365.5 241,-401.5 309,-401.5 309,-365.5 241,-365.5"/>
<text text-anchor="middle" x="275" y="-379.8" font-family="Times,serif" font-size="14.00">DeclStmt</text>
</g>
<!-- Node0x9fbc258&#45;&gt;Node0x9fbbea8 -->
<g id="edge1" class="edge"><title>Node0x9fbc258&#45;&gt;Node0x9fbbea8</title>
<path fill="none" stroke="black" d="M395.155,-438.494C372.024,-428.099 342.362,-414.77 318.297,-403.956"/>
<polygon fill="black" stroke="black" points="319.594,-400.702 309.038,-399.796 316.725,-407.087 319.594,-400.702"/>
</g>
<!-- Node0x9fbc1e8 -->
<g id="node3" class="node"><title>Node0x9fbc1e8</title>
<polygon fill="none" stroke="black" points="402,-365.5 402,-401.5 464,-401.5 464,-365.5 402,-365.5"/>
<text text-anchor="middle" x="433" y="-379.8" font-family="Times,serif" font-size="14.00">ForStmt</text>
</g>
<!-- Node0x9fbc258&#45;&gt;Node0x9fbc1e8 -->
<g id="edge2" class="edge"><title>Node0x9fbc258&#45;&gt;Node0x9fbc1e8</title>
<path fill="none" stroke="black" d="M433,-438.313C433,-430.289 433,-420.547 433,-411.569"/>
<polygon fill="black" stroke="black" points="436.5,-411.529 433,-401.529 429.5,-411.529 436.5,-411.529"/>
</g>
<!-- Node0x9fbc240 -->
<g id="node4" class="node"><title>Node0x9fbc240</title>
<polygon fill="none" stroke="black" points="614,-365.5 614,-401.5 694,-401.5 694,-365.5 614,-365.5"/>
<text text-anchor="middle" x="654" y="-379.8" font-family="Times,serif" font-size="14.00">ReturnStmt</text>
</g>
<!-- Node0x9fbc258&#45;&gt;Node0x9fbc240 -->
<g id="edge3" class="edge"><title>Node0x9fbc258&#45;&gt;Node0x9fbc240</title>
<path fill="none" stroke="black" d="M485.094,-438.764C521.137,-427.184 568.815,-411.867 604.323,-400.46"/>
<polygon fill="black" stroke="black" points="605.545,-403.743 613.995,-397.352 603.404,-397.079 605.545,-403.743"/>
</g>
<!-- Node0x9fbbe70 -->
<g id="node5" class="node"><title>Node0x9fbbe70</title>
<polygon fill="none" stroke="black" points="44.5,-292.5 44.5,-328.5 135.5,-328.5 135.5,-292.5 44.5,-292.5"/>
<text text-anchor="middle" x="90" y="-306.8" font-family="Times,serif" font-size="14.00">IntegerLiteral</text>
</g>
<!-- Node0x9fbbea8&#45;&gt;Node0x9fbbe70 -->
<g id="edge4" class="edge"><title>Node0x9fbbea8&#45;&gt;Node0x9fbbe70</title>
<path fill="none" stroke="black" d="M240.636,-369.312C213.458,-358.881 175.02,-344.129 143.775,-332.138"/>
<polygon fill="black" stroke="black" points="144.92,-328.828 134.33,-328.513 142.412,-335.364 144.92,-328.828"/>
</g>
<!-- Node0x9fbbf08 -->
<g id="node6" class="node"><title>Node0x9fbbf08</title>
<polygon fill="none" stroke="black" points="153.5,-292.5 153.5,-328.5 254.5,-328.5 254.5,-292.5 153.5,-292.5"/>
<text text-anchor="middle" x="204" y="-306.8" font-family="Times,serif" font-size="14.00">BinaryOperator</text>
</g>
<!-- Node0x9fbc1e8&#45;&gt;Node0x9fbbf08 -->
<g id="edge5" class="edge"><title>Node0x9fbc1e8&#45;&gt;Node0x9fbbf08</title>
<path fill="none" stroke="black" d="M401.639,-372.777C366.449,-361.866 308.529,-343.909 264.464,-330.246"/>
<polygon fill="black" stroke="black" points="265.307,-326.844 254.719,-327.225 263.234,-333.53 265.307,-326.844"/>
</g>
<!-- Node0x9fbbf90 -->
<g id="node7" class="node"><title>Node0x9fbbf90</title>
<polygon fill="none" stroke="black" points="323.5,-292.5 323.5,-328.5 424.5,-328.5 424.5,-292.5 323.5,-292.5"/>
<text text-anchor="middle" x="374" y="-306.8" font-family="Times,serif" font-size="14.00">BinaryOperator</text>
</g>
<!-- Node0x9fbc1e8&#45;&gt;Node0x9fbbf90 -->
<g id="edge6" class="edge"><title>Node0x9fbc1e8&#45;&gt;Node0x9fbbf90</title>
<path fill="none" stroke="black" d="M418.718,-365.313C411.471,-356.592 402.536,-345.84 394.564,-336.246"/>
<polygon fill="black" stroke="black" points="397.234,-333.983 388.151,-328.529 391.85,-338.457 397.234,-333.983"/>
</g>
<!-- Node0x9fbbfe0 -->
<g id="node8" class="node"><title>Node0x9fbbfe0</title>
<polygon fill="none" stroke="black" points="443,-292.5 443,-328.5 541,-328.5 541,-292.5 443,-292.5"/>
<text text-anchor="middle" x="492" y="-306.8" font-family="Times,serif" font-size="14.00">UnaryOperator</text>
</g>
<!-- Node0x9fbc1e8&#45;&gt;Node0x9fbbfe0 -->
<g id="edge7" class="edge"><title>Node0x9fbc1e8&#45;&gt;Node0x9fbbfe0</title>
<path fill="none" stroke="black" d="M447.282,-365.313C454.529,-356.592 463.464,-345.84 471.436,-336.246"/>
<polygon fill="black" stroke="black" points="474.15,-338.457 477.849,-328.529 468.766,-333.983 474.15,-338.457"/>
</g>
<!-- Node0x9fbc1c0 -->
<g id="node9" class="node"><title>Node0x9fbc1c0</title>
<polygon fill="none" stroke="black" points="559,-292.5 559,-328.5 663,-328.5 663,-292.5 559,-292.5"/>
<text text-anchor="middle" x="611" y="-306.8" font-family="Times,serif" font-size="14.00">CompoundStmt</text>
</g>
<!-- Node0x9fbc1e8&#45;&gt;Node0x9fbc1c0 -->
<g id="edge8" class="edge"><title>Node0x9fbc1e8&#45;&gt;Node0x9fbc1c0</title>
<path fill="none" stroke="black" d="M464.005,-370.133C490.183,-359.691 528.217,-344.52 559.038,-332.226"/>
<polygon fill="black" stroke="black" points="560.359,-335.468 568.35,-328.512 557.765,-328.966 560.359,-335.468"/>
</g>
<!-- Node0x9fbc220 -->
<g id="node29" class="node"><title>Node0x9fbc220</title>
<polygon fill="none" stroke="black" points="681.5,-292.5 681.5,-328.5 772.5,-328.5 772.5,-292.5 681.5,-292.5"/>
<text text-anchor="middle" x="727" y="-306.8" font-family="Times,serif" font-size="14.00">IntegerLiteral</text>
</g>
<!-- Node0x9fbc240&#45;&gt;Node0x9fbc220 -->
<g id="edge28" class="edge"><title>Node0x9fbc240&#45;&gt;Node0x9fbc220</title>
<path fill="none" stroke="black" d="M671.671,-365.313C680.817,-356.417 692.135,-345.409 702.147,-335.672"/>
<polygon fill="black" stroke="black" points="704.763,-338.01 709.491,-328.529 699.883,-332.992 704.763,-338.01"/>
</g>
<!-- Node0x9fbbec0 -->
<g id="node10" class="node"><title>Node0x9fbbec0</title>
<polygon fill="none" stroke="black" points="0,-219.5 0,-255.5 88,-255.5 88,-219.5 0,-219.5"/>
<text text-anchor="middle" x="44" y="-233.8" font-family="Times,serif" font-size="14.00">DeclRefExpr</text>
</g>
<!-- Node0x9fbbf08&#45;&gt;Node0x9fbbec0 -->
<g id="edge9" class="edge"><title>Node0x9fbbf08&#45;&gt;Node0x9fbbec0</title>
<path fill="none" stroke="black" d="M165.676,-292.494C143.476,-282.643 115.336,-270.156 91.711,-259.672"/>
<polygon fill="black" stroke="black" points="93.1259,-256.471 82.5658,-255.614 90.2866,-262.869 93.1259,-256.471"/>
</g>
<!-- Node0x9fbbee8 -->
<g id="node11" class="node"><title>Node0x9fbbee8</title>
<polygon fill="none" stroke="black" points="106.5,-219.5 106.5,-255.5 197.5,-255.5 197.5,-219.5 106.5,-219.5"/>
<text text-anchor="middle" x="152" y="-233.8" font-family="Times,serif" font-size="14.00">IntegerLiteral</text>
</g>
<!-- Node0x9fbbf08&#45;&gt;Node0x9fbbee8 -->
<g id="edge10" class="edge"><title>Node0x9fbbf08&#45;&gt;Node0x9fbbee8</title>
<path fill="none" stroke="black" d="M191.412,-292.313C185.153,-283.766 177.465,-273.269 170.546,-263.823"/>
<polygon fill="black" stroke="black" points="173.204,-261.528 164.472,-255.529 167.557,-265.665 173.204,-261.528"/>
</g>
<!-- Node0x9fbbf78 -->
<g id="node12" class="node"><title>Node0x9fbbf78</title>
<polygon fill="none" stroke="black" points="216,-219.5 216,-255.5 326,-255.5 326,-219.5 216,-219.5"/>
<text text-anchor="middle" x="271" y="-233.8" font-family="Times,serif" font-size="14.00">ImplicitCastExpr</text>
</g>
<!-- Node0x9fbbf90&#45;&gt;Node0x9fbbf78 -->
<g id="edge11" class="edge"><title>Node0x9fbbf90&#45;&gt;Node0x9fbbf78</title>
<path fill="none" stroke="black" d="M349.329,-292.494C335.797,-283.166 318.836,-271.474 304.16,-261.358"/>
<polygon fill="black" stroke="black" points="306.047,-258.407 295.827,-255.614 302.074,-264.171 306.047,-258.407"/>
</g>
<!-- Node0x9fbbf58 -->
<g id="node13" class="node"><title>Node0x9fbbf58</title>
<polygon fill="none" stroke="black" points="344.5,-219.5 344.5,-255.5 435.5,-255.5 435.5,-219.5 344.5,-219.5"/>
<text text-anchor="middle" x="390" y="-233.8" font-family="Times,serif" font-size="14.00">IntegerLiteral</text>
</g>
<!-- Node0x9fbbf90&#45;&gt;Node0x9fbbf58 -->
<g id="edge12" class="edge"><title>Node0x9fbbf90&#45;&gt;Node0x9fbbf58</title>
<path fill="none" stroke="black" d="M377.873,-292.313C379.681,-284.289 381.877,-274.547 383.9,-265.569"/>
<polygon fill="black" stroke="black" points="387.378,-266.054 386.163,-255.529 380.55,-264.515 387.378,-266.054"/>
</g>
<!-- Node0x9fbbfb8 -->
<g id="node15" class="node"><title>Node0x9fbbfb8</title>
<polygon fill="none" stroke="black" points="454,-219.5 454,-255.5 542,-255.5 542,-219.5 454,-219.5"/>
<text text-anchor="middle" x="498" y="-233.8" font-family="Times,serif" font-size="14.00">DeclRefExpr</text>
</g>
<!-- Node0x9fbbfe0&#45;&gt;Node0x9fbbfb8 -->
<g id="edge14" class="edge"><title>Node0x9fbbfe0&#45;&gt;Node0x9fbbfb8</title>
<path fill="none" stroke="black" d="M493.452,-292.313C494.13,-284.289 494.954,-274.547 495.712,-265.569"/>
<polygon fill="black" stroke="black" points="499.206,-265.788 496.561,-255.529 492.231,-265.199 499.206,-265.788"/>
</g>
<!-- Node0x9fbc0d0 -->
<g id="node16" class="node"><title>Node0x9fbc0d0</title>
<polygon fill="none" stroke="black" points="560.5,-219.5 560.5,-255.5 661.5,-255.5 661.5,-219.5 560.5,-219.5"/>
<text text-anchor="middle" x="611" y="-233.8" font-family="Times,serif" font-size="14.00">BinaryOperator</text>
</g>
<!-- Node0x9fbc1c0&#45;&gt;Node0x9fbc0d0 -->
<g id="edge15" class="edge"><title>Node0x9fbc1c0&#45;&gt;Node0x9fbc0d0</title>
<path fill="none" stroke="black" d="M611,-292.313C611,-284.289 611,-274.547 611,-265.569"/>
<polygon fill="black" stroke="black" points="614.5,-265.529 611,-255.529 607.5,-265.529 614.5,-265.529"/>
</g>
<!-- Node0x9fbc188 -->
<g id="node17" class="node"><title>Node0x9fbc188</title>
<polygon fill="none" stroke="black" points="712,-219.5 712,-255.5 766,-255.5 766,-219.5 712,-219.5"/>
<text text-anchor="middle" x="739" y="-233.8" font-family="Times,serif" font-size="14.00">IfStmt</text>
</g>
<!-- Node0x9fbc1c0&#45;&gt;Node0x9fbc188 -->
<g id="edge16" class="edge"><title>Node0x9fbc1c0&#45;&gt;Node0x9fbc188</title>
<path fill="none" stroke="black" d="M641.659,-292.494C660.048,-282.294 683.531,-269.268 702.824,-258.566"/>
<polygon fill="black" stroke="black" points="704.592,-261.588 711.639,-253.677 701.196,-255.467 704.592,-261.588"/>
</g>
<!-- Node0x9fbbf30 -->
<g id="node14" class="node"><title>Node0x9fbbf30</title>
<polygon fill="none" stroke="black" points="227,-146.5 227,-182.5 315,-182.5 315,-146.5 227,-146.5"/>
<text text-anchor="middle" x="271" y="-160.8" font-family="Times,serif" font-size="14.00">DeclRefExpr</text>
</g>
<!-- Node0x9fbbf78&#45;&gt;Node0x9fbbf30 -->
<g id="edge13" class="edge"><title>Node0x9fbbf78&#45;&gt;Node0x9fbbf30</title>
<path fill="none" stroke="black" d="M271,-219.313C271,-211.289 271,-201.547 271,-192.569"/>
<polygon fill="black" stroke="black" points="274.5,-192.529 271,-182.529 267.5,-192.529 274.5,-192.529"/>
</g>
<!-- Node0x9fbc000 -->
<g id="node18" class="node"><title>Node0x9fbc000</title>
<polygon fill="none" stroke="black" points="454,-146.5 454,-182.5 542,-182.5 542,-146.5 454,-146.5"/>
<text text-anchor="middle" x="498" y="-160.8" font-family="Times,serif" font-size="14.00">DeclRefExpr</text>
</g>
<!-- Node0x9fbc0d0&#45;&gt;Node0x9fbc000 -->
<g id="edge17" class="edge"><title>Node0x9fbc0d0&#45;&gt;Node0x9fbc000</title>
<path fill="none" stroke="black" d="M583.934,-219.494C568.949,-210.079 550.132,-198.255 533.929,-188.075"/>
<polygon fill="black" stroke="black" points="535.567,-184.97 525.237,-182.614 531.842,-190.897 535.567,-184.97"/>
</g>
<!-- Node0x9fbc0a8 -->
<g id="node19" class="node"><title>Node0x9fbc0a8</title>
<polygon fill="none" stroke="black" points="560.5,-146.5 560.5,-182.5 661.5,-182.5 661.5,-146.5 560.5,-146.5"/>
<text text-anchor="middle" x="611" y="-160.8" font-family="Times,serif" font-size="14.00">BinaryOperator</text>
</g>
<!-- Node0x9fbc0d0&#45;&gt;Node0x9fbc0a8 -->
<g id="edge18" class="edge"><title>Node0x9fbc0d0&#45;&gt;Node0x9fbc0a8</title>
<path fill="none" stroke="black" d="M611,-219.313C611,-211.289 611,-201.547 611,-192.569"/>
<polygon fill="black" stroke="black" points="614.5,-192.529 611,-182.529 607.5,-192.529 614.5,-192.529"/>
</g>
<!-- Node0x9fbc158 -->
<g id="node24" class="node"><title>Node0x9fbc158</title>
<polygon fill="none" stroke="black" points="688.5,-146.5 688.5,-182.5 789.5,-182.5 789.5,-146.5 688.5,-146.5"/>
<text text-anchor="middle" x="739" y="-160.8" font-family="Times,serif" font-size="14.00">BinaryOperator</text>
</g>
<!-- Node0x9fbc188&#45;&gt;Node0x9fbc158 -->
<g id="edge23" class="edge"><title>Node0x9fbc188&#45;&gt;Node0x9fbc158</title>
<path fill="none" stroke="black" d="M739,-219.313C739,-211.289 739,-201.547 739,-192.569"/>
<polygon fill="black" stroke="black" points="742.5,-192.529 739,-182.529 735.5,-192.529 742.5,-192.529"/>
</g>
<!-- Node0x9fbc180 -->
<g id="node25" class="node"><title>Node0x9fbc180</title>
<polygon fill="none" stroke="black" points="807.5,-146.5 807.5,-182.5 882.5,-182.5 882.5,-146.5 807.5,-146.5"/>
<text text-anchor="middle" x="845" y="-160.8" font-family="Times,serif" font-size="14.00">BreakStmt</text>
</g>
<!-- Node0x9fbc188&#45;&gt;Node0x9fbc180 -->
<g id="edge24" class="edge"><title>Node0x9fbc188&#45;&gt;Node0x9fbc180</title>
<path fill="none" stroke="black" d="M764.39,-219.494C778.316,-210.166 795.771,-198.474 810.874,-188.358"/>
<polygon fill="black" stroke="black" points="813.09,-191.087 819.45,-182.614 809.194,-185.271 813.09,-191.087"/>
</g>
<!-- Node0x9fbc078 -->
<g id="node20" class="node"><title>Node0x9fbc078</title>
<polygon fill="none" stroke="black" points="428,-73.5 428,-109.5 538,-109.5 538,-73.5 428,-73.5"/>
<text text-anchor="middle" x="483" y="-87.8" font-family="Times,serif" font-size="14.00">ImplicitCastExpr</text>
</g>
<!-- Node0x9fbc0a8&#45;&gt;Node0x9fbc078 -->
<g id="edge19" class="edge"><title>Node0x9fbc0a8&#45;&gt;Node0x9fbc078</title>
<path fill="none" stroke="black" d="M580.341,-146.494C563.053,-136.904 541.261,-124.817 522.682,-114.511"/>
<polygon fill="black" stroke="black" points="524.295,-111.404 513.853,-109.614 520.9,-117.525 524.295,-111.404"/>
</g>
<!-- Node0x9fbc090 -->
<g id="node21" class="node"><title>Node0x9fbc090</title>
<polygon fill="none" stroke="black" points="556,-73.5 556,-109.5 666,-109.5 666,-73.5 556,-73.5"/>
<text text-anchor="middle" x="611" y="-87.8" font-family="Times,serif" font-size="14.00">ImplicitCastExpr</text>
</g>
<!-- Node0x9fbc0a8&#45;&gt;Node0x9fbc090 -->
<g id="edge20" class="edge"><title>Node0x9fbc0a8&#45;&gt;Node0x9fbc090</title>
<path fill="none" stroke="black" d="M611,-146.313C611,-138.289 611,-128.547 611,-119.569"/>
<polygon fill="black" stroke="black" points="614.5,-119.529 611,-109.529 607.5,-119.529 614.5,-119.529"/>
</g>
<!-- Node0x9fbc028 -->
<g id="node22" class="node"><title>Node0x9fbc028</title>
<polygon fill="none" stroke="black" points="439,-0.5 439,-36.5 527,-36.5 527,-0.5 439,-0.5"/>
<text text-anchor="middle" x="483" y="-14.8" font-family="Times,serif" font-size="14.00">DeclRefExpr</text>
</g>
<!-- Node0x9fbc078&#45;&gt;Node0x9fbc028 -->
<g id="edge21" class="edge"><title>Node0x9fbc078&#45;&gt;Node0x9fbc028</title>
<path fill="none" stroke="black" d="M483,-73.3129C483,-65.2895 483,-55.5475 483,-46.5691"/>
<polygon fill="black" stroke="black" points="486.5,-46.5288 483,-36.5288 479.5,-46.5289 486.5,-46.5288"/>
</g>
<!-- Node0x9fbc050 -->
<g id="node23" class="node"><title>Node0x9fbc050</title>
<polygon fill="none" stroke="black" points="567,-0.5 567,-36.5 655,-36.5 655,-0.5 567,-0.5"/>
<text text-anchor="middle" x="611" y="-14.8" font-family="Times,serif" font-size="14.00">DeclRefExpr</text>
</g>
<!-- Node0x9fbc090&#45;&gt;Node0x9fbc050 -->
<g id="edge22" class="edge"><title>Node0x9fbc090&#45;&gt;Node0x9fbc050</title>
<path fill="none" stroke="black" d="M611,-73.3129C611,-65.2895 611,-55.5475 611,-46.5691"/>
<polygon fill="black" stroke="black" points="614.5,-46.5288 611,-36.5288 607.5,-46.5289 614.5,-46.5288"/>
</g>
<!-- Node0x9fbc140 -->
<g id="node26" class="node"><title>Node0x9fbc140</title>
<polygon fill="none" stroke="black" points="684,-73.5 684,-109.5 794,-109.5 794,-73.5 684,-73.5"/>
<text text-anchor="middle" x="739" y="-87.8" font-family="Times,serif" font-size="14.00">ImplicitCastExpr</text>
</g>
<!-- Node0x9fbc158&#45;&gt;Node0x9fbc140 -->
<g id="edge25" class="edge"><title>Node0x9fbc158&#45;&gt;Node0x9fbc140</title>
<path fill="none" stroke="black" d="M739,-146.313C739,-138.289 739,-128.547 739,-119.569"/>
<polygon fill="black" stroke="black" points="742.5,-119.529 739,-109.529 735.5,-119.529 742.5,-119.529"/>
</g>
<!-- Node0x9fbc120 -->
<g id="node27" class="node"><title>Node0x9fbc120</title>
<polygon fill="none" stroke="black" points="812.5,-73.5 812.5,-109.5 903.5,-109.5 903.5,-73.5 812.5,-73.5"/>
<text text-anchor="middle" x="858" y="-87.8" font-family="Times,serif" font-size="14.00">IntegerLiteral</text>
</g>
<!-- Node0x9fbc158&#45;&gt;Node0x9fbc120 -->
<g id="edge26" class="edge"><title>Node0x9fbc158&#45;&gt;Node0x9fbc120</title>
<path fill="none" stroke="black" d="M767.503,-146.494C783.43,-136.991 803.467,-125.036 820.637,-114.792"/>
<polygon fill="black" stroke="black" points="822.522,-117.743 829.317,-109.614 818.936,-111.732 822.522,-117.743"/>
</g>
<!-- Node0x9fbc0f8 -->
<g id="node28" class="node"><title>Node0x9fbc0f8</title>
<polygon fill="none" stroke="black" points="695,-0.5 695,-36.5 783,-36.5 783,-0.5 695,-0.5"/>
<text text-anchor="middle" x="739" y="-14.8" font-family="Times,serif" font-size="14.00">DeclRefExpr</text>
</g>
<!-- Node0x9fbc140&#45;&gt;Node0x9fbc0f8 -->
<g id="edge27" class="edge"><title>Node0x9fbc140&#45;&gt;Node0x9fbc0f8</title>
<path fill="none" stroke="black" d="M739,-73.3129C739,-65.2895 739,-55.5475 739,-46.5691"/>
<polygon fill="black" stroke="black" points="742.5,-46.5288 739,-36.5288 735.5,-46.5289 742.5,-46.5288"/>
</g>
</g>
</svg>
