<?xml version="1.0" encoding="UTF-8" standalone="no"?>
<!DOCTYPE svg PUBLIC "-//W3C//DTD SVG 1.1//EN"
 "http://www.w3.org/Graphics/SVG/1.1/DTD/svg11.dtd">
<!-- Generated by graphviz version 2.38.0 (20140413.2041)
 -->
<!-- Title: unnamed Pages: 1 -->
<svg width="489pt" height="823pt"
 viewBox="0.00 0.00 489.00 823.00" xmlns="http://www.w3.org/2000/svg" xmlns:xlink="http://www.w3.org/1999/xlink">
<g id="graph0" class="graph" transform="scale(1 1) rotate(0) translate(4 819)">
<title>unnamed</title>
<polygon fill="white" stroke="none" points="-4,4 -4,-819 485,-819 485,4 -4,4"/>
<!-- Node0xbb04710 -->
<g id="node1" class="node"><title>Node0xbb04710</title>
<polygon fill="none" stroke="black" points="172.5,-0.5 172.5,-36.5 257.5,-36.5 257.5,-0.5 172.5,-0.5"/>
<text text-anchor="start" x="180.5" y="-14.8" font-family="Times,serif" font-size="14.00">[B0 (EXIT)]</text>
</g>
<!-- Node0xbb047e8 -->
<g id="node2" class="node"><title>Node0xbb047e8</title>
<polygon fill="none" stroke="black" points="160,-73.5 160,-126.5 270,-126.5 270,-73.5 160,-73.5"/>
<text text-anchor="start" x="168" y="-111.3" font-family="Times,serif" font-size="14.00">[B1]</text>
<text text-anchor="start" x="168" y="-96.3" font-family="Times,serif" font-size="14.00"> 1: 0</text>
<text text-anchor="start" x="168" y="-81.3" font-family="Times,serif" font-size="14.00"> 2: return [B1.1];</text>
</g>
<!-- Node0xbb047e8&#45;&gt;Node0xbb04710 -->
<g id="edge1" class="edge"><title>Node0xbb047e8&#45;&gt;Node0xbb04710</title>
<path fill="none" stroke="black" d="M215,-73.4081C215,-64.9823 215,-55.5803 215,-47.0174"/>
<polygon fill="black" stroke="black" points="218.5,-46.7564 215,-36.7564 211.5,-46.7565 218.5,-46.7564"/>
</g>
<!-- Node0xbb048c0 -->
<g id="node3" class="node"><title>Node0xbb048c0</title>
<polygon fill="none" stroke="black" points="166,-163.5 166,-216.5 252,-216.5 252,-163.5 166,-163.5"/>
<text text-anchor="start" x="174" y="-201.3" font-family="Times,serif" font-size="14.00">[B2]</text>
<text text-anchor="start" x="174" y="-186.3" font-family="Times,serif" font-size="14.00"> 1: i</text>
<text text-anchor="start" x="174" y="-171.3" font-family="Times,serif" font-size="14.00"> 2: [B2.1]++</text>
</g>
<!-- Node0xbb04ce8 -->
<g id="node4" class="node"><title>Node0xbb04ce8</title>
<polygon fill="none" stroke="black" points="0,-493.5 0,-591.5 302,-591.5 302,-493.5 0,-493.5"/>
<text text-anchor="start" x="8" y="-576.3" font-family="Times,serif" font-size="14.00">[B5]</text>
<text text-anchor="start" x="8" y="-561.3" font-family="Times,serif" font-size="14.00"> 1: i</text>
<text text-anchor="start" x="8" y="-546.3" font-family="Times,serif" font-size="14.00"> 2: [B5.1] (ImplicitCastExpr, LValueToRValue, int)</text>
<text text-anchor="start" x="8" y="-531.3" font-family="Times,serif" font-size="14.00"> 3: 5</text>
<text text-anchor="start" x="8" y="-516.3" font-family="Times,serif" font-size="14.00"> 4: [B5.2] &lt;= [B5.3]</text>
<text text-anchor="start" x="8" y="-501.3" font-family="Times,serif" font-size="14.00"> T: for (...; [B5.4]; ...)</text>
</g>
<!-- Node0xbb048c0&#45;&gt;Node0xbb04ce8 -->
<g id="edge2" class="edge"><title>Node0xbb048c0&#45;&gt;Node0xbb04ce8</title>
<path fill="none" stroke="black" d="M188.805,-216.707C181.56,-227.345 174.159,-240.178 170,-253 145.129,-329.685 143.986,-423.702 146.588,-483.121"/>
<polygon fill="black" stroke="black" points="143.108,-483.621 147.093,-493.438 150.1,-483.279 143.108,-483.621"/>
</g>
<!-- Node0xbb04ce8&#45;&gt;Node0xbb047e8 -->
<g id="edge7" class="edge"><title>Node0xbb04ce8&#45;&gt;Node0xbb047e8</title>
<path fill="none" stroke="black" d="M139.261,-493.335C123.623,-418.319 103.684,-270.987 157,-163 162.148,-152.573 169.631,-142.685 177.521,-133.994"/>
<polygon fill="black" stroke="black" points="180.132,-136.328 184.511,-126.68 175.072,-131.491 180.132,-136.328"/>
</g>
<!-- Node0xbb04a70 -->
<g id="node6" class="node"><title>Node0xbb04a70</title>
<polygon fill="none" stroke="black" points="179,-253.5 179,-456.5 481,-456.5 481,-253.5 179,-253.5"/>
<text text-anchor="start" x="187" y="-441.3" font-family="Times,serif" font-size="14.00">[B4]</text>
<text text-anchor="start" x="187" y="-426.3" font-family="Times,serif" font-size="14.00"> 1: sum</text>
<text text-anchor="start" x="187" y="-411.3" font-family="Times,serif" font-size="14.00"> 2: [B4.1] (ImplicitCastExpr, LValueToRValue, int)</text>
<text text-anchor="start" x="187" y="-396.3" font-family="Times,serif" font-size="14.00"> 3: i</text>
<text text-anchor="start" x="187" y="-381.3" font-family="Times,serif" font-size="14.00"> 4: [B4.3] (ImplicitCastExpr, LValueToRValue, int)</text>
<text text-anchor="start" x="187" y="-366.3" font-family="Times,serif" font-size="14.00"> 5: [B4.2] + [B4.4]</text>
<text text-anchor="start" x="187" y="-351.3" font-family="Times,serif" font-size="14.00"> 6: sum</text>
<text text-anchor="start" x="187" y="-336.3" font-family="Times,serif" font-size="14.00"> 7: [B4.6] = [B4.5]</text>
<text text-anchor="start" x="187" y="-321.3" font-family="Times,serif" font-size="14.00"> 8: sum</text>
<text text-anchor="start" x="187" y="-306.3" font-family="Times,serif" font-size="14.00"> 9: [B4.8] (ImplicitCastExpr, LValueToRValue, int)</text>
<text text-anchor="start" x="187" y="-291.3" font-family="Times,serif" font-size="14.00"> 10: 5</text>
<text text-anchor="start" x="187" y="-276.3" font-family="Times,serif" font-size="14.00"> 11: [B4.9] &gt; [B4.10]</text>
<text text-anchor="start" x="187" y="-261.3" font-family="Times,serif" font-size="14.00"> T: if [B4.11]</text>
</g>
<!-- Node0xbb04ce8&#45;&gt;Node0xbb04a70 -->
<g id="edge6" class="edge"><title>Node0xbb04ce8&#45;&gt;Node0xbb04a70</title>
<path fill="none" stroke="black" d="M197.563,-493.246C206.399,-484.09 215.966,-474.175 225.776,-464.009"/>
<polygon fill="black" stroke="black" points="228.53,-466.195 232.955,-456.569 223.493,-461.334 228.53,-466.195"/>
</g>
<!-- Node0xbb04998 -->
<g id="node5" class="node"><title>Node0xbb04998</title>
<polygon fill="none" stroke="black" points="282,-171 282,-209 352,-209 352,-171 282,-171"/>
<text text-anchor="start" x="290" y="-193.8" font-family="Times,serif" font-size="14.00">[B3]</text>
<text text-anchor="start" x="290" y="-178.8" font-family="Times,serif" font-size="14.00"> T: break;</text>
</g>
<!-- Node0xbb04998&#45;&gt;Node0xbb047e8 -->
<g id="edge3" class="edge"><title>Node0xbb04998&#45;&gt;Node0xbb047e8</title>
<path fill="none" stroke="black" d="M295.866,-170.766C283.36,-159.977 267.155,-145.997 252.539,-133.387"/>
<polygon fill="black" stroke="black" points="254.474,-130.433 244.616,-126.551 249.901,-135.734 254.474,-130.433"/>
</g>
<!-- Node0xbb04a70&#45;&gt;Node0xbb048c0 -->
<g id="edge5" class="edge"><title>Node0xbb04a70&#45;&gt;Node0xbb048c0</title>
<path fill="none" stroke="black" d="M255.09,-253.088C247.62,-243.026 240.462,-233.383 234.107,-224.822"/>
<polygon fill="black" stroke="black" points="236.809,-222.59 228.038,-216.647 231.189,-226.762 236.809,-222.59"/>
</g>
<!-- Node0xbb04a70&#45;&gt;Node0xbb04998 -->
<g id="edge4" class="edge"><title>Node0xbb04a70&#45;&gt;Node0xbb04998</title>
<path fill="none" stroke="black" d="M321.952,-253.088C320.971,-240.785 320.039,-229.109 319.255,-219.271"/>
<polygon fill="black" stroke="black" points="322.72,-218.7 318.436,-209.01 315.743,-219.257 322.72,-218.7"/>
</g>
<!-- Node0xbb04e00 -->
<g id="node7" class="node"><title>Node0xbb04e00</title>
<polygon fill="none" stroke="black" points="90.5,-628.5 90.5,-741.5 211.5,-741.5 211.5,-628.5 90.5,-628.5"/>
<text text-anchor="start" x="98.5" y="-726.3" font-family="Times,serif" font-size="14.00">[B6]</text>
<text text-anchor="start" x="98.5" y="-711.3" font-family="Times,serif" font-size="14.00"> 1: int i;</text>
<text text-anchor="start" x="98.5" y="-696.3" font-family="Times,serif" font-size="14.00"> 2: 0</text>
<text text-anchor="start" x="98.5" y="-681.3" font-family="Times,serif" font-size="14.00"> 3: int sum = 0;</text>
<text text-anchor="start" x="98.5" y="-666.3" font-family="Times,serif" font-size="14.00"> 4: 1</text>
<text text-anchor="start" x="98.5" y="-651.3" font-family="Times,serif" font-size="14.00"> 5: i</text>
<text text-anchor="start" x="98.5" y="-636.3" font-family="Times,serif" font-size="14.00"> 6: [B6.5] = [B6.4]</text>
</g>
<!-- Node0xbb04e00&#45;&gt;Node0xbb04ce8 -->
<g id="edge8" class="edge"><title>Node0xbb04e00&#45;&gt;Node0xbb04ce8</title>
<path fill="none" stroke="black" d="M151,-628.471C151,-619.76 151,-610.733 151,-601.959"/>
<polygon fill="black" stroke="black" points="154.5,-601.809 151,-591.809 147.5,-601.809 154.5,-601.809"/>
</g>
<!-- Node0xbb04fa8 -->
<g id="node8" class="node"><title>Node0xbb04fa8</title>
<polygon fill="none" stroke="black" points="101.5,-778.5 101.5,-814.5 200.5,-814.5 200.5,-778.5 101.5,-778.5"/>
<text text-anchor="start" x="109.5" y="-792.8" font-family="Times,serif" font-size="14.00">[B7 (ENTRY)]</text>
</g>
<!-- Node0xbb04fa8&#45;&gt;Node0xbb04e00 -->
<g id="edge9" class="edge"><title>Node0xbb04fa8&#45;&gt;Node0xbb04e00</title>
<path fill="none" stroke="black" d="M151,-778.391C151,-770.98 151,-761.786 151,-752.096"/>
<polygon fill="black" stroke="black" points="154.5,-751.873 151,-741.873 147.5,-751.873 154.5,-751.873"/>
</g>
</g>
</svg>
